<mxfile host="Electron" agent="Mozilla/5.0 (X11; Linux x86_64) AppleWebKit/537.36 (KHTML, like Gecko) draw.io/27.0.9 Chrome/134.0.6998.205 Electron/35.4.0 Safari/537.36" version="27.0.9">
  <diagram name="Page-1" id="QgftxY1wQbP_-DEK3tXW">
    <mxGraphModel dx="133" dy="603" grid="1" gridSize="10" guides="1" tooltips="1" connect="1" arrows="1" fold="1" page="1" pageScale="1" pageWidth="850" pageHeight="1100" math="0" shadow="0">
      <root>
        <mxCell id="0" />
        <mxCell id="1" parent="0" />
        <mxCell id="PTpO7nweB_7LtinLbqOV-1" value="Usuario" style="shape=umlActor;verticalLabelPosition=bottom;verticalAlign=top;html=1;" parent="1" vertex="1">
          <mxGeometry x="880" y="190" width="30" height="60" as="geometry" />
        </mxCell>
        <mxCell id="PTpO7nweB_7LtinLbqOV-2" value="GestiÃ³n de compartir" style="swimlane;whiteSpace=wrap;html=1;movable=1;resizable=1;rotatable=1;deletable=1;editable=1;locked=0;connectable=1;" parent="1" vertex="1">
          <mxGeometry x="950" y="30" width="370" height="360" as="geometry">
            <mxRectangle x="170" y="90" width="140" height="30" as="alternateBounds" />
          </mxGeometry>
        </mxCell>
        <mxCell id="PTpO7nweB_7LtinLbqOV-3" value="Capturar pantalla" style="ellipse;whiteSpace=wrap;html=1;" parent="PTpO7nweB_7LtinLbqOV-2" vertex="1">
          <mxGeometry x="40" y="200" width="150" height="50" as="geometry" />
        </mxCell>
        <mxCell id="PTpO7nweB_7LtinLbqOV-6" style="edgeStyle=orthogonalEdgeStyle;rounded=0;orthogonalLoop=1;jettySize=auto;html=1;exitX=0.5;exitY=1;exitDx=0;exitDy=0;" parent="PTpO7nweB_7LtinLbqOV-2" edge="1">
          <mxGeometry relative="1" as="geometry">
            <mxPoint x="140" y="340" as="sourcePoint" />
            <mxPoint x="140" y="340" as="targetPoint" />
          </mxGeometry>
        </mxCell>
        <mxCell id="PTpO7nweB_7LtinLbqOV-7" value="Compartir captura" style="ellipse;whiteSpace=wrap;html=1;" parent="PTpO7nweB_7LtinLbqOV-2" vertex="1">
          <mxGeometry x="200" y="80" width="150" height="50" as="geometry" />
        </mxCell>
        <mxCell id="PTpO7nweB_7LtinLbqOV-8" value="" style="endArrow=block;dashed=1;endFill=0;endSize=12;html=1;rounded=0;exitX=0;exitY=0.667;exitDx=0;exitDy=0;exitPerimeter=0;entryX=1;entryY=0.333;entryDx=0;entryDy=0;entryPerimeter=0;" parent="PTpO7nweB_7LtinLbqOV-2" source="PTpO7nweB_7LtinLbqOV-7" target="PTpO7nweB_7LtinLbqOV-3" edge="1">
          <mxGeometry width="160" relative="1" as="geometry">
            <mxPoint x="180" y="150" as="sourcePoint" />
            <mxPoint x="340" y="150" as="targetPoint" />
          </mxGeometry>
        </mxCell>
        <mxCell id="PTpO7nweB_7LtinLbqOV-9" value="extend" style="edgeLabel;html=1;align=center;verticalAlign=middle;resizable=0;points=[];" parent="PTpO7nweB_7LtinLbqOV-8" vertex="1" connectable="0">
          <mxGeometry x="0.0196" y="-1" relative="1" as="geometry">
            <mxPoint as="offset" />
          </mxGeometry>
        </mxCell>
        <mxCell id="PTpO7nweB_7LtinLbqOV-10" value="" style="endArrow=none;html=1;rounded=0;entryX=0;entryY=0.5;entryDx=0;entryDy=0;" parent="1" source="PTpO7nweB_7LtinLbqOV-1" target="PTpO7nweB_7LtinLbqOV-3" edge="1">
          <mxGeometry width="50" height="50" relative="1" as="geometry">
            <mxPoint x="900" y="200" as="sourcePoint" />
            <mxPoint x="1000" y="160" as="targetPoint" />
          </mxGeometry>
        </mxCell>
      </root>
    </mxGraphModel>
  </diagram>
</mxfile>
